# xmcd
#
# Track frame offsets:
#	150
#	14834
#	43534
#	107415
#	139310
#	175809
#	207777
#	228806
#	271314
#
# Disc length: 4161 seconds
#
# Revision: 0
# Processed by: cddbd v1.5.2PL0 Copyright (c) Steve Scherf et al.
# Submitted via: audiograbber 1.83.01
#
DISCID=75103f09
DTITLE=Grateful Dead - 93-09-29 Boston Garden, Boston MA
DYEAR=1900
DGENRE=
TTITLE0=Tuning
TTITLE1=Hell In A Bucket
TTITLE2=Sugaree
TTITLE3=The Same Thing
TTITLE4=Loose Lucy
TTITLE5=Black Throated Wind
TTITLE6=Dire Wolf
TTITLE7=Eternity
TTITLE8=Tennessee Jed
EXTD=
EXTT0=
EXTT1=
EXTT2=
EXTT3=
EXTT4=
EXTT5=
EXTT6=
EXTT7=
EXTT8=
PLAYORDER=
